<svg width="133" height="55" viewBox="0 0 133 55" fill="none" xmlns="http://www.w3.org/2000/svg">
<path d="M43.0184 50C42.9171 50 42.8221 49.962 42.7334 49.886C42.6574 49.7973 42.6194 49.7023 42.6194 49.601C42.6194 49.5377 42.6258 49.4807 42.6384 49.43L47.1034 37.232C47.1414 37.0927 47.2174 36.9723 47.3314 36.871C47.4581 36.757 47.6291 36.7 47.8444 36.7H50.6564C50.8718 36.7 51.0364 36.757 51.1504 36.871C51.2771 36.9723 51.3594 37.0927 51.3974 37.232L55.8434 49.43C55.8688 49.4807 55.8814 49.5377 55.8814 49.601C55.8814 49.7023 55.8371 49.7973 55.7484 49.886C55.6724 49.962 55.5774 50 55.4634 50H53.1264C52.9364 50 52.7908 49.9557 52.6894 49.867C52.6008 49.7657 52.5438 49.677 52.5184 49.601L51.7774 47.663H46.7044L45.9824 49.601C45.9571 49.677 45.9001 49.7657 45.8114 49.867C45.7228 49.9557 45.5708 50 45.3554 50H43.0184ZM47.4834 44.927H51.0174L49.2314 39.911L47.4834 44.927ZM57.7393 50C57.6126 50 57.4986 49.9557 57.3973 49.867C57.3086 49.7783 57.2643 49.6643 57.2643 49.525V42.609H55.8203C55.6809 42.609 55.5669 42.5647 55.4783 42.476C55.3896 42.3873 55.3453 42.2733 55.3453 42.134V40.595C55.3453 40.4557 55.3896 40.3417 55.4783 40.253C55.5669 40.1643 55.6809 40.12 55.8203 40.12H57.2643V39.512C57.2643 38.6507 57.4289 37.9603 57.7583 37.441C58.1003 36.909 58.5816 36.529 59.2023 36.301C59.8229 36.0603 60.5639 35.94 61.4253 35.94H62.9073C63.0339 35.94 63.1416 35.9843 63.2303 36.073C63.3316 36.1617 63.3823 36.2757 63.3823 36.415V37.954C63.3823 38.0933 63.3316 38.2073 63.2303 38.296C63.1416 38.3847 63.0339 38.429 62.9073 38.429H61.5773C61.1466 38.429 60.8426 38.5303 60.6653 38.733C60.5006 38.9357 60.4183 39.227 60.4183 39.607V40.12H64.1613V39.512C64.1613 38.6507 64.3259 37.9603 64.6553 37.441C64.9973 36.909 65.4786 36.529 66.0993 36.301C66.7326 36.0603 67.4736 35.94 68.3223 35.94H73.1863C73.3129 35.94 73.4206 35.9843 73.5093 36.073C73.6106 36.1617 73.6613 36.2757 73.6613 36.415V37.954C73.6613 38.0933 73.6106 38.2073 73.5093 38.296C73.4206 38.3847 73.3129 38.429 73.1863 38.429H68.4743C68.0436 38.429 67.7396 38.5303 67.5623 38.733C67.3976 38.9357 67.3153 39.227 67.3153 39.607V40.12H73.1863C73.3129 40.12 73.4206 40.1643 73.5093 40.253C73.6106 40.3417 73.6613 40.4557 73.6613 40.595V49.525C73.6613 49.6643 73.6106 49.7783 73.5093 49.867C73.4206 49.9557 73.3129 50 73.1863 50H70.9823C70.8429 50 70.7289 49.9557 70.6403 49.867C70.5516 49.7783 70.5073 49.6643 70.5073 49.525V42.609H67.3153V49.525C67.3153 49.6643 67.2709 49.7783 67.1823 49.867C67.0936 49.9557 66.9796 50 66.8403 50H64.6363C64.5096 50 64.3956 49.9557 64.2943 49.867C64.2056 49.7783 64.1613 49.6643 64.1613 49.525V42.609H60.4183V49.525C60.4183 49.6643 60.3739 49.7783 60.2853 49.867C60.1966 49.9557 60.0826 50 59.9433 50H57.7393ZM75.7605 50C75.6211 50 75.5071 49.9557 75.4185 49.867C75.3298 49.7783 75.2855 49.6643 75.2855 49.525V36.985C75.2855 36.8457 75.3298 36.7317 75.4185 36.643C75.5071 36.5543 75.6211 36.51 75.7605 36.51H78.0025C78.1418 36.51 78.2558 36.5543 78.3445 36.643C78.4331 36.7317 78.4775 36.8457 78.4775 36.985V49.525C78.4775 49.6643 78.4331 49.7783 78.3445 49.867C78.2558 49.9557 78.1418 50 78.0025 50H75.7605ZM81.2464 50C81.1071 50 80.9931 49.9557 80.9044 49.867C80.8157 49.7783 80.7714 49.6643 80.7714 49.525V40.595C80.7714 40.4557 80.8157 40.3417 80.9044 40.253C80.9931 40.1643 81.1071 40.12 81.2464 40.12H83.4884C83.6151 40.12 83.7227 40.1643 83.8114 40.253C83.9127 40.3417 83.9634 40.4557 83.9634 40.595V49.525C83.9634 49.6643 83.9127 49.7783 83.8114 49.867C83.7227 49.9557 83.6151 50 83.4884 50H81.2464ZM81.2274 38.695C81.0881 38.695 80.9741 38.6507 80.8854 38.562C80.7967 38.4733 80.7524 38.3593 80.7524 38.22V36.529C80.7524 36.3897 80.7967 36.2757 80.8854 36.187C80.9741 36.0857 81.0881 36.035 81.2274 36.035H83.4884C83.6277 36.035 83.7417 36.0857 83.8304 36.187C83.9317 36.2757 83.9824 36.3897 83.9824 36.529V38.22C83.9824 38.3593 83.9317 38.4733 83.8304 38.562C83.7417 38.6507 83.6277 38.695 83.4884 38.695H81.2274ZM88.5534 50.19C87.8694 50.19 87.255 50.0633 86.7104 49.81C86.1784 49.544 85.754 49.1893 85.4374 48.746C85.1207 48.3027 84.9624 47.8023 84.9624 47.245C84.9624 46.3457 85.3297 45.6363 86.0644 45.117C86.799 44.585 87.7744 44.224 88.9904 44.034L91.3654 43.673V43.407C91.3654 42.951 91.2704 42.6027 91.0804 42.362C90.8904 42.1213 90.542 42.001 90.0354 42.001C89.6807 42.001 89.3894 42.0707 89.1614 42.21C88.946 42.3493 88.775 42.5393 88.6484 42.78C88.5344 42.9447 88.376 43.027 88.1734 43.027H86.0454C85.906 43.027 85.7984 42.989 85.7224 42.913C85.6464 42.8243 85.6147 42.723 85.6274 42.609C85.6274 42.381 85.7097 42.1213 85.8744 41.83C86.0517 41.526 86.3177 41.2283 86.6724 40.937C87.027 40.6457 87.483 40.405 88.0404 40.215C88.5977 40.025 89.269 39.93 90.0544 39.93C90.8777 39.93 91.5807 40.025 92.1634 40.215C92.746 40.405 93.2147 40.671 93.5694 41.013C93.9367 41.355 94.209 41.7603 94.3864 42.229C94.5637 42.685 94.6524 43.1917 94.6524 43.749V49.525C94.6524 49.6643 94.6017 49.7783 94.5004 49.867C94.4117 49.9557 94.304 50 94.1774 50H91.9734C91.834 50 91.72 49.9557 91.6314 49.867C91.5427 49.7783 91.4984 49.6643 91.4984 49.525V48.86C91.3337 49.1007 91.112 49.3223 90.8334 49.525C90.5547 49.7277 90.2254 49.886 89.8454 50C89.478 50.1267 89.0474 50.19 88.5534 50.19ZM89.4464 48.024C89.8137 48.024 90.143 47.948 90.4344 47.796C90.7384 47.6313 90.9727 47.3843 91.1374 47.055C91.3147 46.713 91.4034 46.2887 91.4034 45.782V45.516L89.7884 45.801C89.193 45.9023 88.756 46.0607 88.4774 46.276C88.2114 46.4787 88.0784 46.7193 88.0784 46.998C88.0784 47.2133 88.1417 47.397 88.2684 47.549C88.395 47.701 88.5597 47.8213 88.7624 47.91C88.965 47.986 89.193 48.024 89.4464 48.024ZM101.176 50C100.366 50 99.6625 49.8733 99.0672 49.62C98.4845 49.354 98.0348 48.9487 97.7182 48.404C97.4015 47.8467 97.2432 47.131 97.2432 46.257V42.609H95.7612C95.6218 42.609 95.5015 42.5647 95.4002 42.476C95.3115 42.3873 95.2672 42.2733 95.2672 42.134V40.595C95.2672 40.4557 95.3115 40.3417 95.4002 40.253C95.5015 40.1643 95.6218 40.12 95.7612 40.12H97.2432V36.985C97.2432 36.8457 97.2875 36.7317 97.3762 36.643C97.4775 36.5543 97.5915 36.51 97.7182 36.51H99.9222C100.062 36.51 100.176 36.5543 100.264 36.643C100.353 36.7317 100.397 36.8457 100.397 36.985V40.12H102.772C102.912 40.12 103.026 40.1643 103.114 40.253C103.203 40.3417 103.247 40.4557 103.247 40.595V42.134C103.247 42.2733 103.203 42.3873 103.114 42.476C103.026 42.5647 102.912 42.609 102.772 42.609H100.397V45.991C100.397 46.4217 100.48 46.7637 100.644 47.017C100.809 47.2703 101.088 47.397 101.48 47.397H102.943C103.083 47.397 103.197 47.4413 103.285 47.53C103.374 47.6187 103.418 47.7327 103.418 47.872V49.525C103.418 49.6643 103.374 49.7783 103.285 49.867C103.197 49.9557 103.083 50 102.943 50H101.176ZM108.951 50.19C107.457 50.19 106.266 49.7847 105.379 48.974C104.493 48.1633 104.03 46.96 103.992 45.364C103.992 45.2753 103.992 45.1613 103.992 45.022C103.992 44.8827 103.992 44.775 103.992 44.699C104.03 43.6983 104.252 42.8433 104.657 42.134C105.075 41.412 105.645 40.8673 106.367 40.5C107.102 40.12 107.957 39.93 108.932 39.93C110.047 39.93 110.965 40.1517 111.687 40.595C112.422 41.0383 112.973 41.64 113.34 42.4C113.708 43.16 113.891 44.0277 113.891 45.003V45.459C113.891 45.5983 113.841 45.7123 113.739 45.801C113.651 45.8897 113.543 45.934 113.416 45.934H107.336C107.336 45.9467 107.336 45.9657 107.336 45.991C107.336 46.0163 107.336 46.0417 107.336 46.067C107.349 46.4343 107.412 46.77 107.526 47.074C107.64 47.378 107.818 47.6187 108.058 47.796C108.299 47.9733 108.59 48.062 108.932 48.062C109.186 48.062 109.395 48.024 109.559 47.948C109.737 47.8593 109.882 47.7643 109.996 47.663C110.11 47.549 110.199 47.454 110.262 47.378C110.376 47.2513 110.465 47.1753 110.528 47.15C110.604 47.112 110.718 47.093 110.87 47.093H113.226C113.353 47.093 113.454 47.131 113.53 47.207C113.619 47.2703 113.657 47.3653 113.644 47.492C113.632 47.7073 113.524 47.967 113.321 48.271C113.119 48.575 112.821 48.879 112.428 49.183C112.048 49.4743 111.567 49.715 110.984 49.905C110.402 50.095 109.724 50.19 108.951 50.19ZM107.336 44.053H110.547V44.015C110.547 43.6097 110.484 43.255 110.357 42.951C110.243 42.647 110.06 42.4127 109.806 42.248C109.566 42.0833 109.274 42.001 108.932 42.001C108.59 42.001 108.299 42.0833 108.058 42.248C107.83 42.4127 107.653 42.647 107.526 42.951C107.4 43.255 107.336 43.6097 107.336 44.015V44.053Z" fill="white" fill-opacity="0.78"/>
<rect y="7" width="37" height="43" fill="#FF8C00"/>
<path d="M11.2699 38C11.0499 38 10.8699 37.93 10.7299 37.79C10.5899 37.65 10.5199 37.47 10.5199 37.25V17.75C10.5199 17.53 10.5899 17.35 10.7299 17.21C10.8699 17.07 11.0499 17 11.2699 17H25.2799C25.4999 17 25.6799 17.07 25.8199 17.21C25.9599 17.35 26.0299 17.53 26.0299 17.75V20.57C26.0299 20.79 25.9599 20.97 25.8199 21.11C25.6799 21.25 25.4999 21.32 25.2799 21.32H15.7099V25.37H24.6199C24.8399 25.37 25.0199 25.45 25.1599 25.61C25.2999 25.75 25.3699 25.93 25.3699 26.15V28.76C25.3699 28.96 25.2999 29.14 25.1599 29.3C25.0199 29.44 24.8399 29.51 24.6199 29.51H15.7099V33.68H25.5199C25.7399 33.68 25.9199 33.75 26.0599 33.89C26.1999 34.03 26.2699 34.21 26.2699 34.43V37.25C26.2699 37.47 26.1999 37.65 26.0599 37.79C25.9199 37.93 25.7399 38 25.5199 38H11.2699Z" fill="white"/>
<path d="M50.5189 28.3C48.5189 28.3 46.8589 28.02 45.5389 27.46C44.2189 26.88 43.2189 26.13 42.5389 25.21C41.8589 24.29 41.4989 23.31 41.4589 22.27C41.4589 22.11 41.5189 21.97 41.6389 21.85C41.7789 21.71 41.9389 21.64 42.1189 21.64H45.8989C46.1789 21.64 46.3889 21.69 46.5289 21.79C46.6889 21.89 46.8289 22.02 46.9489 22.18C47.1089 22.48 47.3289 22.77 47.6089 23.05C47.9089 23.33 48.2889 23.56 48.7489 23.74C49.2289 23.9 49.8189 23.98 50.5189 23.98C51.6789 23.98 52.5489 23.8 53.1289 23.44C53.7289 23.08 54.0289 22.59 54.0289 21.97C54.0289 21.53 53.8689 21.17 53.5489 20.89C53.2289 20.59 52.7089 20.33 51.9889 20.11C51.2889 19.87 50.3489 19.63 49.1689 19.39C47.6489 19.07 46.3489 18.66 45.2689 18.16C44.2089 17.64 43.3989 16.97 42.8389 16.15C42.2789 15.31 41.9989 14.27 41.9989 13.03C41.9989 11.81 42.3389 10.72 43.0189 9.76C43.7189 8.8 44.6889 8.05 45.9289 7.51C47.1689 6.97 48.6389 6.7 50.3389 6.7C51.7189 6.7 52.9289 6.88 53.9689 7.24C55.0289 7.6 55.9189 8.08 56.6389 8.68C57.3589 9.28 57.8989 9.92 58.2589 10.6C58.6389 11.26 58.8389 11.91 58.8589 12.55C58.8589 12.71 58.7989 12.86 58.6789 13C58.5589 13.12 58.4089 13.18 58.2289 13.18H54.2689C54.0489 13.18 53.8589 13.14 53.6989 13.06C53.5389 12.98 53.3989 12.85 53.2789 12.67C53.1589 12.23 52.8389 11.85 52.3189 11.53C51.8189 11.19 51.1589 11.02 50.3389 11.02C49.4589 11.02 48.7689 11.18 48.2689 11.5C47.7889 11.8 47.5489 12.27 47.5489 12.91C47.5489 13.31 47.6789 13.66 47.9389 13.96C48.2189 14.26 48.6689 14.52 49.2889 14.74C49.9289 14.96 50.7989 15.19 51.8989 15.43C53.7189 15.77 55.1889 16.2 56.3089 16.72C57.4289 17.22 58.2489 17.88 58.7689 18.7C59.2889 19.5 59.5489 20.51 59.5489 21.73C59.5489 23.09 59.1589 24.27 58.3789 25.27C57.6189 26.25 56.5589 27 55.1989 27.52C53.8389 28.04 52.2789 28.3 50.5189 28.3ZM71.1321 28.3C69.2921 28.3 67.6921 28 66.3321 27.4C64.9721 26.8 63.9121 25.9 63.1521 24.7C62.3921 23.48 61.9721 21.96 61.8921 20.14C61.8721 19.28 61.8621 18.42 61.8621 17.56C61.8621 16.7 61.8721 15.83 61.8921 14.95C61.9721 13.15 62.3921 11.64 63.1521 10.42C63.9321 9.18 65.0021 8.25 66.3621 7.63C67.7221 7.01 69.3121 6.7 71.1321 6.7C72.9321 6.7 74.5121 7.01 75.8721 7.63C77.2521 8.25 78.3321 9.18 79.1121 10.42C79.8921 11.64 80.3121 13.15 80.3721 14.95C80.4121 15.83 80.4321 16.7 80.4321 17.56C80.4321 18.42 80.4121 19.28 80.3721 20.14C80.2921 21.96 79.8721 23.48 79.1121 24.7C78.3521 25.9 77.2921 26.8 75.9321 27.4C74.5721 28 72.9721 28.3 71.1321 28.3ZM71.1321 23.98C72.1921 23.98 73.0521 23.66 73.7121 23.02C74.3921 22.38 74.7521 21.36 74.7921 19.96C74.8321 19.08 74.8521 18.25 74.8521 17.47C74.8521 16.69 74.8321 15.88 74.7921 15.04C74.7521 14.1 74.5721 13.34 74.2521 12.76C73.9521 12.16 73.5321 11.72 72.9921 11.44C72.4521 11.16 71.8321 11.02 71.1321 11.02C70.4521 11.02 69.8421 11.16 69.3021 11.44C68.7621 11.72 68.3321 12.16 68.0121 12.76C67.6921 13.34 67.5121 14.1 67.4721 15.04C67.4521 15.88 67.4421 16.69 67.4421 17.47C67.4421 18.25 67.4521 19.08 67.4721 19.96C67.5321 21.36 67.8921 22.38 68.5521 23.02C69.2121 23.66 70.0721 23.98 71.1321 23.98ZM92.6996 28.3C90.8996 28.3 89.3196 28.01 87.9596 27.43C86.6196 26.83 85.5796 25.92 84.8396 24.7C84.0996 23.46 83.7296 21.89 83.7296 19.99V7.75C83.7296 7.53 83.7996 7.35 83.9396 7.21C84.0796 7.07 84.2596 7 84.4796 7H88.3496C88.5696 7 88.7496 7.07 88.8896 7.21C89.0296 7.35 89.0996 7.53 89.0996 7.75V19.96C89.0996 21.26 89.4096 22.24 90.0296 22.9C90.6696 23.54 91.5596 23.86 92.6996 23.86C93.8196 23.86 94.6896 23.54 95.3096 22.9C95.9496 22.24 96.2696 21.26 96.2696 19.96V7.75C96.2696 7.53 96.3396 7.35 96.4796 7.21C96.6396 7.07 96.8196 7 97.0196 7H100.92C101.12 7 101.29 7.07 101.43 7.21C101.59 7.35 101.67 7.53 101.67 7.75V19.99C101.67 21.89 101.3 23.46 100.56 24.7C99.8196 25.92 98.7796 26.83 97.4396 27.43C96.0996 28.01 94.5196 28.3 92.6996 28.3ZM106.398 28C106.178 28 105.998 27.93 105.858 27.79C105.718 27.65 105.648 27.47 105.648 27.25V7.75C105.648 7.53 105.718 7.35 105.858 7.21C105.998 7.07 106.178 7 106.398 7H110.178C110.398 7 110.578 7.07 110.718 7.21C110.858 7.35 110.928 7.53 110.928 7.75V14.41L116.478 7.57C116.558 7.45 116.688 7.33 116.868 7.21C117.068 7.07 117.328 7 117.648 7H121.968C122.148 7 122.298 7.07 122.418 7.21C122.538 7.33 122.598 7.47 122.598 7.63C122.598 7.77 122.558 7.89 122.478 7.99L115.308 17.05L123.048 27.01C123.128 27.09 123.168 27.21 123.168 27.37C123.168 27.53 123.098 27.68 122.958 27.82C122.838 27.94 122.698 28 122.538 28H118.068C117.708 28 117.428 27.92 117.228 27.76C117.048 27.6 116.928 27.48 116.868 27.4L110.928 19.99V27.25C110.928 27.47 110.858 27.65 110.718 27.79C110.578 27.93 110.398 28 110.178 28H106.398Z" fill="white"/>
</svg>
